<?xml version="1.0" standalone="no"?>
<!DOCTYPE svg PUBLIC "-//W3C//DTD SVG 20010904//EN"
 "http://www.w3.org/TR/2001/REC-SVG-20010904/DTD/svg10.dtd">
<svg version="1.0" xmlns="http://www.w3.org/2000/svg"
 width="260.000000pt" height="260.000000pt" viewBox="0 0 260.000000 260.000000"
 preserveAspectRatio="xMidYMid meet">
<metadata>
Created by potrace 1.14, written by Peter Selinger 2001-2017
</metadata>
<g transform="translate(0.000000,260.000000) scale(0.100000,-0.100000)"
fill="#000000" stroke="none">
<path d="M1102 2275 c-236 -53 -446 -206 -579 -424 -150 -242 -169 -591 -47
-833 l24 -48 90 0 90 0 0 70 0 70 40 0 40 0 0 -70 0 -70 55 0 55 0 0 45 0 45
50 0 50 0 0 -45 0 -45 75 0 c71 0 75 -1 75 -22 1 -36 34 -101 89 -173 27 -36
60 -91 72 -121 l23 -55 28 61 c33 74 122 201 194 280 31 33 54 67 54 79 0 21
4 22 73 19 l72 -3 3 -32 c3 -30 6 -33 38 -33 l34 0 0 103 c0 97 1 105 25 127
22 20 25 32 25 87 0 49 3 63 15 63 12 0 15 -13 15 -61 0 -54 4 -66 30 -96 29
-32 30 -37 30 -128 l0 -95 79 0 79 0 32 77 c156 374 41 800 -285 1059 -78 62
-219 134 -310 159 -84 24 -348 30 -433 10z m188 -52 c0 -5 -7 -16 -14 -25 -18
-24 -191 -27 -200 -3 -4 10 5 17 27 24 39 11 187 14 187 4z m-247 -80 c139
-155 207 -217 340 -310 242 -168 307 -250 307 -385 0 -61 -5 -76 -44 -150 -24
-46 -84 -147 -132 -226 -49 -78 -114 -183 -144 -232 -30 -50 -59 -89 -65 -87
-5 2 -14 15 -18 28 -7 19 -1 38 32 93 37 64 39 71 25 87 -8 9 -79 61 -157 116
-209 146 -268 213 -283 324 -10 71 11 120 110 268 52 76 103 164 115 196 l21
57 -110 121 c-109 121 -109 122 -89 140 12 9 26 17 31 17 5 0 33 -26 61 -57z
m637 12 c10 -12 10 -18 0 -30 -25 -30 -61 -7 -46 30 3 8 12 15 19 15 8 0 20
-7 27 -15z m-276 -11 c9 -3 16 -12 16 -18 0 -18 -21 -35 -36 -29 -15 5 -19 35
-7 46 8 8 8 8 27 1z m-164 -28 c0 -13 -23 -66 -29 -66 -4 0 -22 16 -41 35
l-34 35 52 0 c29 0 52 -2 52 -4z m-450 -76 c0 -21 -24 -28 -35 -10 -8 14 3 30
21 30 8 0 14 -9 14 -20z m752 -66 c21 -6 21 -7 -4 -20 -15 -8 -30 -24 -34 -36
-6 -21 -7 -21 -20 4 -8 15 -24 30 -36 34 -21 6 -21 7 4 20 15 8 30 24 34 36 6
21 7 21 20 -4 8 -15 24 -30 36 -34z m246 -69 c12 -5 22 -12 22 -15 0 -3 -10
-10 -22 -15 -13 -6 -30 -24 -39 -42 l-16 -32 -14 32 c-8 18 -24 36 -36 42 -28
12 -29 22 -2 30 11 4 27 22 36 40 l16 34 16 -32 c9 -18 26 -36 39 -42z m-790
27 c4 -28 -24 -40 -45 -19 -14 13 -14 19 -3 32 18 22 44 15 48 -13z m-344 -63
c-8 -14 -34 -11 -34 4 0 8 3 17 7 20 9 9 34 -13 27 -24z m224 -79 c11 0 5 -7
-15 -19 -17 -11 -35 -30 -39 -43 l-7 -23 -8 23 c-5 12 -22 30 -38 40 l-29 18
28 13 c16 7 32 21 35 32 6 17 8 16 32 -11 13 -17 32 -30 41 -30z m1138 39 c10
-17 -13 -36 -27 -22 -12 12 -4 33 11 33 5 0 12 -5 16 -11z m-1416 -159 c-11
-11 -20 -26 -20 -32 -1 -7 -7 -1 -15 13 -8 15 -21 29 -29 32 -13 5 -10 12 12
34 l27 28 23 -27 23 -27 -21 -21z m1080 66 c0 -20 -19 -31 -32 -18 -6 6 -7 15
-4 21 10 16 36 13 36 -3z m381 -98 c30 -13 38 -28 16 -28 -19 0 -52 -39 -65
-75 -6 -18 -11 -23 -11 -12 -2 33 -31 77 -56 83 -33 8 -31 16 8 34 22 11 35
25 41 50 l10 35 14 -37 c9 -24 25 -42 43 -50z m-246 7 c0 -22 -31 -33 -47 -17
-17 17 -1 44 24 40 15 -2 23 -10 23 -23z m-1070 -100 c0 -13 -8 -21 -22 -23
-19 -3 -23 1 -23 23 0 22 4 26 23 23 14 -2 22 -10 22 -23z m1163 -98 c4 -20
-25 -34 -40 -19 -15 15 -1 44 19 40 10 -2 19 -11 21 -21z m-1278 -36 c0 -6 14
-18 30 -28 39 -22 38 -37 -5 -77 l-35 -33 -35 33 c-19 18 -35 36 -35 41 0 9
61 70 73 72 4 1 7 -3 7 -8z m1426 -124 l-23 -23 -21 23 -20 23 20 23 21 23 23
-23 23 -23 -23 -23z m-1201 -118 c0 -7 -8 -15 -17 -17 -18 -3 -25 18 -11 32
10 10 28 1 28 -15z"/>
<path d="M1180 1812 c-13 -31 -44 -85 -67 -119 -24 -35 -41 -63 -38 -63 2 0
49 23 104 50 55 28 107 50 115 50 16 0 76 -32 76 -41 0 -3 -19 -12 -42 -19
-24 -7 -68 -25 -98 -41 l-55 -28 167 -1 c161 0 167 -1 182 -22 9 -12 16 -26
16 -31 0 -4 -109 -7 -242 -6 l-242 1 -44 -47 c-42 -44 -44 -49 -38 -88 9 -57
47 -119 100 -162 61 -52 310 -225 318 -222 7 2 109 157 152 230 l28 48 -54
-31 c-70 -41 -153 -79 -203 -92 -38 -10 -44 -9 -84 18 l-43 28 64 12 c35 7 91
23 123 38 l60 25 -171 1 c-165 0 -171 1 -192 23 -12 13 -22 26 -22 30 0 4 109
7 243 7 l243 0 42 31 c37 27 42 35 42 71 0 94 -74 178 -284 323 -68 47 -126
85 -128 85 -1 0 -14 -26 -28 -58z m70 -31 c0 -8 -44 -31 -61 -31 -5 0 -2 14 6
30 13 26 19 29 35 20 11 -6 20 -14 20 -19z m312 -326 c3 -13 3 -27 0 -30 -3
-3 -124 -5 -269 -5 l-263 0 0 30 0 30 264 0 264 0 4 -25z m-132 -310 c0 -2 -5
-16 -12 -30 -13 -30 -28 -31 -59 -6 l-24 19 35 10 c40 12 60 14 60 7z"/>
<path d="M458 893 c-23 -4 -28 -9 -28 -32 l0 -28 188 1 c146 0 202 -3 256 -17
87 -22 187 -74 253 -133 45 -39 55 -43 73 -34 27 14 17 33 -55 98 -73 67 -180
119 -280 137 -74 13 -339 18 -407 8z"/>
<path d="M1742 885 c-104 -19 -206 -70 -285 -145 -37 -34 -67 -67 -67 -73 0
-5 8 -15 17 -22 15 -11 25 -6 69 34 62 57 168 114 255 138 52 14 101 18 252
17 l187 -2 0 28 c0 25 -4 28 -46 34 -78 10 -304 5 -382 -9z"/>
<path d="M418 763 l-68 -4 0 -31 0 -31 158 6 c86 4 205 7 265 7 98 0 107 2
107 19 0 11 -9 21 -22 25 -28 8 -349 15 -440 9z"/>
<path d="M1860 764 c-8 -1 -41 -6 -72 -9 -48 -5 -58 -10 -58 -26 0 -18 8 -19
103 -19 56 0 173 -3 260 -7 l157 -6 0 30 0 30 -92 7 c-91 6 -270 7 -298 0z"/>
<path d="M510 650 c-74 -10 -141 -19 -147 -19 -18 -1 -17 -61 1 -61 8 0 101 9
208 21 264 29 434 17 503 -35 18 -14 -23 -15 -387 -16 l-408 0 0 -40 0 -40
452 0 452 0 24 -22 c20 -19 35 -23 92 -23 57 0 72 4 92 22 l24 23 450 2 449 3
3 38 3 37 -406 0 c-261 0 -404 3 -400 10 11 18 139 51 224 56 56 4 155 -1 284
-15 108 -12 204 -21 212 -21 10 0 15 10 15 30 0 17 -5 30 -12 30 -7 0 -83 9
-168 20 -85 11 -211 20 -280 20 -198 0 -296 -33 -391 -132 -53 -55 -58 -58
-105 -58 -45 0 -51 3 -74 36 -33 49 -100 99 -168 126 -50 19 -78 22 -232 24
-125 2 -213 -3 -310 -16z"/>
</g>
</svg>
